<svg width="25" height="31" viewBox="0 0 25 31" fill="none" xmlns="http://www.w3.org/2000/svg">
<path opacity="0.3" d="M2.88176 0H15.3949C15.7601 0 16.1135 0.129309 16.3925 0.365003L24.2793 7.02854C24.6269 7.32223 24.8274 7.75418 24.8274 8.20924V28.0291C24.8274 30.8045 24.7957 31 21.9457 31H2.88176C0.0317294 31 0 30.8045 0 28.0291V2.97083C0 0.195493 0.0317294 0 2.88176 0Z" fill="#0ABB87"/>
<path fill-rule="evenodd" clip-rule="evenodd" d="M10.8618 18.6L7.75839 18.6C6.9014 18.6 6.20667 17.9061 6.20667 17.05C6.20667 16.194 6.9014 15.5 7.75839 15.5L10.8618 15.5L10.8618 12.4C10.8618 11.544 11.5565 10.8501 12.4135 10.8501C13.2705 10.8501 13.9652 11.544 13.9652 12.4001L13.9652 15.5L17.0687 15.5C17.9257 15.5 18.6204 16.194 18.6204 17.05C18.6204 17.9061 17.9257 18.6 17.0687 18.6L13.9652 18.6L13.9652 21.7C13.9652 22.5561 13.2705 23.25 12.4135 23.25C11.5565 23.25 10.8618 22.5561 10.8618 21.7L10.8618 18.6Z" fill="#0ABB87"/>
</svg>
