<svg width="19" height="17" viewBox="0 0 19 17" fill="none" xmlns="http://www.w3.org/2000/svg">
<path d="M9.36886 2.07291C9.8436 1.59871 9.8436 0.829863 9.36886 0.355656C8.89413 -0.118552 8.12444 -0.118552 7.6497 0.355656L0.355922 7.64136C-0.10429 8.10107 -0.120391 8.84128 0.319396 9.32052L7.00536 16.6062C7.45903 17.1006 8.22799 17.134 8.7229 16.6808C9.21781 16.2277 9.25124 15.4595 8.79758 14.9652L2.8981 8.53651L9.36886 2.07291Z" fill="#6993FF"/>
<path opacity="0.3" d="M17.8784 2.07291C18.3531 1.59871 18.3531 0.829863 17.8784 0.355656C17.4036 -0.118552 16.6339 -0.118552 16.1592 0.355656L8.86541 7.64136C8.4052 8.10107 8.3891 8.84128 8.82889 9.32052L15.5149 16.6062C15.9685 17.1006 16.7375 17.134 17.2324 16.6808C17.7273 16.2277 17.7607 15.4595 17.3071 14.9652L11.4076 8.53651L17.8784 2.07291Z" fill="#6993FF"/>
</svg>
