<svg width="28" height="28" viewBox="0 0 28 28" fill="none" xmlns="http://www.w3.org/2000/svg">
<g clip-path="url(#clip0_200_2654)">
<path d="M15.1321 21.4678L9.65234 26.9312C9.48833 27.0296 9.27505 27.2757 8.83203 27.1444C8.6024 27.0624 8.32344 26.7999 8.27427 26.5046V26.4882L6.69922 17.071L7.97896 16.1031C8.14466 16.2003 11.3069 18.0546 11.1125 17.9406L15.132 20.3031C15.4438 20.6312 15.4438 21.1398 15.1321 21.4678Z" fill="#009AE4"/>
<path d="M27.984 1.80271L23.007 26.521C22.9578 26.7835 22.7609 27.0132 22.4984 27.1116C22.4 27.1609 22.3016 27.1773 22.2031 27.1773C22.0391 27.1773 21.875 27.1281 21.7273 27.0296C21.5623 26.9117 9.47401 18.2772 10.243 18.8265C2.92359 15.2007 6.74149 17.1064 0.459375 13.9702C0.164062 13.8226 0 13.5273 0 13.2156C0.0164063 12.8874 0.196875 12.6085 0.492188 12.4773L26.852 0.883959C27.1309 0.769115 27.459 0.801928 27.6887 0.998803C27.7215 1.03162 27.7708 1.08083 27.8036 1.11365C27.9676 1.31052 28.0333 1.55662 27.984 1.80271Z" fill="#25D9F8"/>
<path d="M27.8036 1.11365L11.1125 17.9406L10.243 18.8264L8.83203 27.1444C8.6024 27.0624 8.32344 26.7998 8.27427 26.5046V26.4882L6.69922 17.071L7.97896 16.1031L27.8036 1.11365Z" fill="#00C0F1"/>
</g>
<defs>
<clipPath id="clip0_200_2654">
<rect width="28" height="28" fill="white"/>
</clipPath>
</defs>
</svg>
