<svg width="85" height="81" viewBox="0 0 85 81" fill="none" xmlns="http://www.w3.org/2000/svg">
<path fill-rule="evenodd" clip-rule="evenodd" d="M15.0332 10.125C14.4809 10.125 14.0332 10.5727 14.0332 11.125V69.875C14.0332 70.4273 14.4809 70.875 15.0332 70.875H23.558C24.1103 70.875 24.558 70.4273 24.558 69.875V11.125C24.558 10.5727 24.1103 10.125 23.558 10.125H15.0332ZM32.5745 10.125C32.0222 10.125 31.5745 10.5727 31.5745 11.125V69.875C31.5745 70.4273 32.0222 70.875 32.5745 70.875H41.0992C41.6515 70.875 42.0992 70.4273 42.0992 69.875V11.125C42.0992 10.5727 41.6515 10.125 41.0992 10.125H32.5745Z" fill="#B5B5C3"/>
<rect opacity="0.3" width="10.4831" height="61.0087" rx="1" transform="matrix(0.949275 -0.314446 0.336987 0.941509 47.2812 13.2441)" fill="#B5B5C3"/>
</svg>
