<svg width="232" height="24" viewBox="0 0 232 24" fill="none" xmlns="http://www.w3.org/2000/svg">
<path opacity="0.3" d="M12.4369 17.7515C11.9651 17.2801 11.9651 16.5159 12.4369 16.0445C12.9088 15.5732 13.6739 15.5732 14.1458 16.0445L18.9791 20.8725C19.451 21.3439 19.451 22.1081 18.9791 22.5795C18.5072 23.0508 17.7422 23.0508 17.2703 22.5795L12.4369 17.7515Z" fill="#6993FF"/>
<path fill-rule="evenodd" clip-rule="evenodd" d="M0 10.863C0 15.5292 3.78692 19.312 8.45832 19.312C13.1297 19.312 16.9166 15.5292 16.9166 10.863C16.9166 6.19679 13.1297 2.41406 8.45832 2.41406C3.78692 2.41406 0 6.19679 0 10.863ZM14.5 10.863C14.5 14.196 11.795 16.898 8.45832 16.898C5.1216 16.898 2.41666 14.196 2.41666 10.863C2.41666 7.53 5.1216 4.82805 8.45832 4.82805C11.795 4.82805 14.5 7.53 14.5 10.863Z" fill="#6993FF"/>
<path opacity="0.3" fill-rule="evenodd" clip-rule="evenodd" d="M51.2101 10.6961C50.6222 11.2833 50.6222 12.2354 51.2101 12.8227L54.2077 15.8169C54.7956 16.4042 55.7488 16.4042 56.3366 15.8169L59.3342 12.8227C59.9221 12.2354 59.9221 11.2833 59.3342 10.6961L56.3366 7.70183C55.7488 7.11459 54.7956 7.11459 54.2077 7.70183L51.2101 10.6961ZM65.7101 10.6961C65.1222 11.2833 65.1222 12.2354 65.7101 12.8227L68.7077 15.8169C69.2956 16.4042 70.2487 16.4042 70.8366 15.8169L73.8342 12.8227C74.4221 12.2354 74.4221 11.2833 73.8342 10.6961L70.8366 7.70183C70.2487 7.11459 69.2956 7.11459 68.7077 7.70183L65.7101 10.6961Z" fill="#6993FF"/>
<path fill-rule="evenodd" clip-rule="evenodd" d="M58.4601 3.45415C57.8722 4.04139 57.8723 4.9935 58.4601 5.58074L61.4577 8.57499C62.0456 9.16223 62.9988 9.16223 63.5867 8.57499L66.5842 5.58074C67.1721 4.9935 67.1721 4.04139 66.5842 3.45415L63.5867 0.4599C62.9988 -0.127343 62.0456 -0.127342 61.4577 0.459901L58.4601 3.45415ZM58.4601 17.9381C57.8722 18.5253 57.8723 19.4774 58.4601 20.0647L61.4577 23.0589C62.0456 23.6462 62.9988 23.6462 63.5867 23.0589L66.5842 20.0647C67.1721 19.4774 67.1721 18.5253 66.5842 17.9381L63.5867 14.9438C62.9988 14.3566 62.0456 14.3566 61.4577 14.9438L58.4601 17.9381Z" fill="#6993FF"/>
<rect opacity="0.3" x="117.208" y="2.41406" width="3.62499" height="19.3119" rx="1.807" fill="#6993FF"/>
<rect x="111.166" y="8.44896" width="3.62499" height="13.2769" rx="1.807" fill="#6993FF"/>
<rect x="123.25" y="10.863" width="3.62499" height="10.8629" rx="1.807" fill="#6993FF"/>
<rect x="105.124" y="13.277" width="3.62499" height="8.44896" rx="1.807" fill="#6993FF"/>
<path opacity="0.3" d="M169.166 3.09238L164.053 9.22166C163.626 9.73375 162.864 9.80294 162.351 9.37619C161.838 8.94945 161.769 8.18836 162.196 7.67626L168.238 0.434295C168.721 -0.144765 169.612 -0.144765 170.095 0.434295L176.136 7.67626C176.564 8.18836 176.494 8.94945 175.982 9.37619C175.469 9.80294 174.707 9.73375 174.28 9.22166L169.166 3.09238Z" fill="#6993FF"/>
<path fill-rule="evenodd" clip-rule="evenodd" d="M158.895 8.44896H179.437C180.104 8.44896 180.645 8.98935 180.645 9.65596C180.645 9.81531 180.614 9.97309 180.552 10.1202L176.137 20.7046C175.574 22.0539 174.255 22.9329 172.791 22.9329H165.541C164.078 22.9329 162.758 22.0539 162.195 20.7046L157.78 10.1202C157.523 9.50486 157.815 8.7982 158.431 8.54181C158.578 8.48052 158.736 8.44896 158.895 8.44896ZM169.166 18.1049C170.501 18.1049 171.583 17.0241 171.583 15.6909C171.583 14.3577 170.501 13.2769 169.166 13.2769C167.832 13.2769 166.75 14.3577 166.75 15.6909C166.75 17.0241 167.832 18.1049 169.166 18.1049Z" fill="#6993FF"/>
<rect x="212.666" y="2.41406" width="8.45832" height="8.44896" rx="1.5" fill="#6993FF"/>
<path opacity="0.3" fill-rule="evenodd" clip-rule="evenodd" d="M223.541 3.91862C223.541 3.08768 224.215 2.41406 225.046 2.41406H230.495C231.326 2.41406 232 3.08768 232 3.91862V9.35846C232 10.1894 231.326 10.863 230.495 10.863H225.046C224.215 10.863 223.541 10.1894 223.541 9.35845V3.91862ZM212.666 14.7816C212.666 13.9506 213.34 13.277 214.171 13.277H219.62C220.451 13.277 221.125 13.9506 221.125 14.7816V20.2214C221.125 21.0523 220.451 21.726 219.62 21.726H214.171C213.34 21.726 212.666 21.0523 212.666 20.2214V14.7816ZM225.046 13.277C224.215 13.277 223.541 13.9506 223.541 14.7816V20.2214C223.541 21.0523 224.215 21.726 225.046 21.726H230.495C231.326 21.726 232 21.0523 232 20.2214V14.7816C232 13.9506 231.326 13.277 230.495 13.277H225.046Z" fill="#6993FF"/>
</svg>
