<svg width="12" height="202" viewBox="0 0 12 202" fill="none" xmlns="http://www.w3.org/2000/svg">
<path d="M9.90414 0.23566C10.2188 -0.0786263 10.7289 -0.0786263 11.0435 0.23566C11.3582 0.549947 11.3582 1.05951 11.0435 1.37379L6.2095 6.20248C5.90449 6.50715 5.41336 6.51781 5.09539 6.22666L0.261357 1.80036C-0.0666487 1.50003 -0.0888062 0.990948 0.211865 0.663306C0.512536 0.335665 1.02218 0.313531 1.35018 0.613869L5.61557 4.51948L9.90414 0.23566Z" fill="white"/>
<path d="M4.2056 49.7196C3.96962 49.4839 3.96962 49.1017 4.2056 48.866C4.44157 48.6303 4.82416 48.6303 5.06014 48.866L8.68567 52.4875C8.91442 52.716 8.92243 53.084 8.70382 53.3222L5.38042 56.9437C5.15492 57.1894 4.77269 57.206 4.52669 56.9808C4.28068 56.7555 4.26406 56.3737 4.48957 56.128L7.42202 52.9325L4.2056 49.7196Z" fill="#494B69"/>
<path d="M4.2056 98.0064C3.96962 97.7707 3.96962 97.3885 4.2056 97.1528C4.44157 96.9171 4.82416 96.9171 5.06014 97.1528L8.68567 100.774C8.91442 101.003 8.92243 101.371 8.70382 101.609L5.38042 105.231C5.15492 105.476 4.77269 105.493 4.52669 105.268C4.28068 105.042 4.26406 104.661 4.48957 104.415L7.42202 101.219L4.2056 98.0064Z" fill="#494B69"/>
<path d="M4.2056 146.293C3.96962 146.058 3.96962 145.675 4.2056 145.44C4.44157 145.204 4.82416 145.204 5.06014 145.44L8.68567 149.061C8.91442 149.29 8.92243 149.658 8.70382 149.896L5.38042 153.517C5.15492 153.763 4.77269 153.78 4.52669 153.554C4.28068 153.329 4.26406 152.947 4.48957 152.702L7.42202 149.506L4.2056 146.293Z" fill="#494B69"/>
<path d="M4.2056 194.58C3.96962 194.344 3.96962 193.962 4.2056 193.727C4.44157 193.491 4.82416 193.491 5.06014 193.727L8.68567 197.348C8.91442 197.577 8.92243 197.945 8.70382 198.183L5.38042 201.804C5.15492 202.05 4.77269 202.067 4.52669 201.841C4.28068 201.616 4.26406 201.234 4.48957 200.989L7.42202 197.793L4.2056 194.58Z" fill="#494B69"/>
</svg>
