<svg width="29" height="29" viewBox="0 0 29 29" fill="none" xmlns="http://www.w3.org/2000/svg">
<g clip-path="url(#clip0_200_2630)">
<path d="M20.3233 14.576L25.3861 8.21045C27.068 6.05284 26.7453 2.82484 24.4688 1.05793C22.2092 -0.675055 19.032 -0.216282 17.3331 1.97531C17.1972 2.12827 13.2898 7.02125 12.78 7.63287C12.763 7.6669 12.7459 7.68378 12.7459 7.68378V5.10143C12.7459 2.29811 10.4524 0.00458191 7.6491 0.00458191C4.84577 0.00458191 2.55225 2.29811 2.55225 5.10143V23.9031C2.55225 26.7064 4.84577 29 7.6491 29C10.4524 29 12.7459 26.7064 12.7459 23.9031V21.3717C12.882 21.5415 17.316 27.0179 17.3331 27.0179C19.083 29.2435 22.2432 29.6513 24.4688 27.9183C26.7623 26.1344 27.051 23.0026 25.3861 20.828L20.3233 14.576Z" fill="#7FE881"/>
<path d="M25.3862 20.828C27.0511 23.0026 26.7625 26.1344 24.4689 27.9183C22.2434 29.6513 19.0832 29.2435 17.3332 27.0179C17.3162 27.0179 12.8822 21.5416 12.7461 21.3717V7.68378C12.7461 7.68378 12.7631 7.6669 12.7801 7.63287C13.2899 7.02125 17.1973 2.12827 17.3332 1.97531C19.0322 -0.216282 22.2094 -0.675055 24.4689 1.05793C26.7454 2.82478 27.0681 6.05284 25.3862 8.21045L20.3234 14.576L25.3862 20.828Z" fill="#5BC980"/>
</g>
<defs>
<clipPath id="clip0_200_2630">
<rect width="29" height="29" fill="white"/>
</clipPath>
</defs>
</svg>
